{"accessors" : [{"bufferView" : 0, "byteOffset" : 0, "componentType" : 5123, "count" : 5532, "type" : "SCALAR", "max" : [5531], "min" : [0]}, {"bufferView" : 1, "byteOffset" : 0, "componentType" : 5126, "count" : 5532, "type" : "VEC3", "max" : [59.27756881713867, 27.44754981994629, 15.03652286529541], "min" : [-58.9650993347168, -94.79591369628906, -20.57182502746582], "name" : "POSITION"}, {"bufferView" : 1, "byteOffset" : 12, "componentType" : 5126, "count" : 5532, "type" : "VEC3", "max" : [1.0000044107437134, 6.461405549672218E-16, 1.0000044107437134], "min" : [-7.123393032291384E-16, -6.97311615255867E-16, -1.0000044107437134], "name" : "NORMAL"}, {"bufferView" : 1, "byteOffset" : 24, "componentType" : 5126, "count" : 5532, "type" : "VEC2", "max" : [1, 1], "min" : [0, 0], "name" : "TEXCOORD_0"}, {"bufferView" : 0, "byteOffset" : 11064, "componentType" : 5123, "count" : 22008, "type" : "SCALAR", "max" : [22007], "min" : [0]}, {"bufferView" : 2, "byteOffset" : 0, "componentType" : 5126, "count" : 22008, "type" : "VEC3", "max" : [44.09263229370117, -10.289196014404297, 18.910390853881836], "min" : [-51.68471145629883, -79.1298599243164, 15.260479927062988], "name" : "POSITION"}, {"bufferView" : 2, "byteOffset" : 12, "componentType" : 5126, "count" : 22008, "type" : "VEC3", "max" : [1.0000044107437134, 1.0000044107437134, 1.0000044107437134], "min" : [-1.0000044107437134, -1.0000044107437134, -1.0000044107437134], "name" : "NORMAL"}, {"bufferView" : 2, "byteOffset" : 24, "componentType" : 5126, "count" : 22008, "type" : "VEC2", "max" : [1, 1], "min" : [0, 0], "name" : "TEXCOORD_0"}, {"bufferView" : 0, "byteOffset" : 55080, "componentType" : 5123, "count" : 25668, "type" : "SCALAR", "max" : [25667], "min" : [0]}, {"bufferView" : 3, "byteOffset" : 0, "componentType" : 5126, "count" : 25668, "type" : "VEC3", "max" : [32.505165100097656, 50.42287063598633, 24.477357864379883], "min" : [-29.163837432861328, -2.368084192276001, 14.34369945526123], "name" : "POSITION"}, {"bufferView" : 3, "byteOffset" : 12, "componentType" : 5126, "count" : 25668, "type" : "VEC3", "max" : [0.9847834706306458, 1.0000044107437134, 1.0000041723251343], "min" : [-0.9847834706306458, -1.0000044107437134, -1.0000041723251343], "name" : "NORMAL"}, {"bufferView" : 3, "byteOffset" : 24, "componentType" : 5126, "count" : 25668, "type" : "VEC2", "max" : [1, 1], "min" : [0, 0], "name" : "TEXCOORD_0"}, {"bufferView" : 0, "byteOffset" : 106416, "componentType" : 5123, "count" : 2016, "type" : "SCALAR", "max" : [2015], "min" : [0]}, {"bufferView" : 4, "byteOffset" : 0, "componentType" : 5126, "count" : 2016, "type" : "VEC3", "max" : [56.742862701416016, 38.47340774536133, 22.59991455078125], "min" : [-61.257137298583984, -91.28272247314453, -20.47454261779785], "name" : "POSITION"}, {"bufferView" : 4, "byteOffset" : 12, "componentType" : 5126, "count" : 2016, "type" : "VEC3", "max" : [1.0000044107437134, 1.0000044107437134, 1.0000044107437134], "min" : [-1.0000044107437134, -1.0000044107437134, -1.0000044107437134], "name" : "NORMAL"}, {"bufferView" : 4, "byteOffset" : 24, "componentType" : 5126, "count" : 2016, "type" : "VEC2", "max" : [1, 1], "min" : [0, 0], "name" : "TEXCOORD_0"}, {"bufferView" : 0, "byteOffset" : 110448, "componentType" : 5123, "count" : 678, "type" : "SCALAR", "max" : [677], "min" : [0]}, {"bufferView" : 5, "byteOffset" : 0, "componentType" : 5126, "count" : 678, "type" : "VEC3", "max" : [59.27756881713867, 27.44754981994629, 14.551878929138184], "min" : [-62.96589279174805, -94.79591369628906, -24.954782485961914], "name" : "POSITION"}, {"bufferView" : 5, "byteOffset" : 12, "componentType" : 5126, "count" : 678, "type" : "VEC3", "max" : [0.9962185025215149, 1.0000044107437134, 0.983278214931488], "min" : [-0.983278214931488, -1.0000044107437134, -0.983278214931488], "name" : "NORMAL"}, {"bufferView" : 5, "byteOffset" : 24, "componentType" : 5126, "count" : 678, "type" : "VEC2", "max" : [1, 1], "min" : [0, 0], "name" : "TEXCOORD_0"}], "asset" : {"generator" : "Aspose.3D 24.9.1", "version" : "2.0"}, "buffers" : [{"uri" : "data:application/octet-stream;base64,", "byteLength" : 1900692}], "bufferViews" : [{"buffer" : 0, "byteOffset" : 0, "byteLength" : 111804, "target" : 34963}, {"buffer" : 0, "byteOffset" : 111808, "byteLength" : 177024, "byteStride" : 32, "target" : 34962}, {"buffer" : 0, "byteOffset" : 288836, "byteLength" : 704256, "byteStride" : 32, "target" : 34962}, {"buffer" : 0, "byteOffset" : 993096, "byteLength" : 821376, "byteStride" : 32, "target" : 34962}, {"buffer" : 0, "byteOffset" : 1814476, "byteLength" : 64512, "byteStride" : 32, "target" : 34962}, {"buffer" : 0, "byteOffset" : 1878992, "byteLength" : 21696, "byteStride" : 32, "target" : 34962}], "cameras" : [{"perspective" : {"aspectRatio" : 1.7777777777777777, "yfov" : 0.9272952180016123, "zfar" : 10000, "znear" : 0.001}, "type" : "perspective", "name" : ""}], "materials" : [{"name" : "text_shadow", "pbrMetallicRoughness" : {"baseColorFactor" : [1, 1, 1, 1], "metallicFactor" : 1, "roughnessFactor" : 1}, "emissiveFactor" : [1, 1, 1], "alphaMode" : "OPAQUE", "doubleSided" : false}, {"name" : "text", "pbrMetallicRoughness" : {"baseColorFactor" : [0.15686274509803913, 0.6549019607843137, 0.297227443609023, 1], "metallicFactor" : 1, "roughnessFactor" : 1}, "emissiveFactor" : [1, 1, 1], "alphaMode" : "OPAQUE", "doubleSided" : false}, {"name" : "eyebrow", "pbrMetallicRoughness" : {"baseColorFactor" : [0.15686274509803913, 0.6549019607843137, 0.2705882352941177, 1], "metallicFactor" : 1, "roughnessFactor" : 1}, "emissiveFactor" : [1, 1, 1], "alphaMode" : "OPAQUE", "doubleSided" : false}, {"name" : "paper", "pbrMetallicRoughness" : {"baseColorFactor" : [1, 1, 1, 1], "metallicFactor" : 1, "roughnessFactor" : 1}, "emissiveFactor" : [1, 1, 1], "alphaMode" : "OPAQUE", "doubleSided" : false}, {"name" : "book", "pbrMetallicRoughness" : {"baseColorFactor" : [0.019607843137254867, 0.019607843137254874, 0.01960784313725489, 1], "metallicFactor" : 1, "roughnessFactor" : 1}, "emissiveFactor" : [1, 1, 1], "alphaMode" : "OPAQUE", "doubleSided" : false}], "meshes" : [{"primitives" : [{"attributes" : {"POSITION" : 1, "NORMAL" : 2, "TEXCOORD_0" : 3}, "indices" : 0, "material" : 0, "mode" : 4}, {"attributes" : {"POSITION" : 5, "NORMAL" : 6, "TEXCOORD_0" : 7}, "indices" : 4, "material" : 1, "mode" : 4}, {"attributes" : {"POSITION" : 9, "NORMAL" : 10, "TEXCOORD_0" : 11}, "indices" : 8, "material" : 2, "mode" : 4}, {"attributes" : {"POSITION" : 13, "NORMAL" : 14, "TEXCOORD_0" : 15}, "indices" : 12, "material" : 3, "mode" : 4}, {"attributes" : {"POSITION" : 17, "NORMAL" : 18, "TEXCOORD_0" : 19}, "indices" : 16, "material" : 4, "mode" : 4}], "name" : ""}], "nodes" : [{"camera" : 0, "matrix" : [0.27979098229474897, -0.3064329617054151, -0.9098438581465432, 0, 0.0900702575344032, 0.9518922417902392, -0.2928967543815374, 0, 0.9558265297292317, 1.8763607285289003E-17, 0.29393136114707846, 0, -157.0895939523858, 103.76089255634439, 291.6249878070858, 1], "name" : "CINEMA_4D_Editor"}, {"matrix" : [1, 0, 0, 0, 0, 1, 0, 0, 0, 0, 1, 0, -22.60327646620909, 33.67418088495018, 5.20145167113632, 1], "mesh" : 0, "name" : "Text_1"}], "scene" : 0, "scenes" : [{"nodes" : [0, 1]}]}