{
	"asset":{
		"version":"2.0",
		"generator":"Created using the official Cinema 4D glTF Exporter 1.000x284978"
	},
	"scenes":[{
		"nodes":[0]
	}],
	"nodes":[{
		"name":"dolphin",
		"translation":[0.0,
		0.0,
		0.0],
		"rotation":[0.0,
		-1.0,
		0.0,
		-6.123234262925839e-17],
		"scale":[1.0,
		1.0,
		1.0],
		"children":[1,
		2,
		3,
		4,
		5,
		6,
		7,
		8]
	},
	{
		"name":"dolphin-blue",
		"mesh":0
	},
	{
		"name":"dolphin-sky blue",
		"mesh":1
	},
	{
		"name":"dolphin-sky blue",
		"mesh":2
	},
	{
		"name":"dolphin-beige",
		"mesh":3
	},
	{
		"name":"dolphin-sky blue",
		"mesh":4
	},
	{
		"name":"dolphin-blue",
		"mesh":5
	},
	{
		"name":"dolphin-pink",
		"mesh":6
	},
	{
		"name":"dolphin-white",
		"mesh":7
	}],
	"meshes":[{
		"primitives":[{
			"attributes":{
				"POSITION":1,
				"NORMAL":2,
				"TEXCOORD_0":3
			},
			"indices":0,
			"material":0
		}],
		"name":"dolphin-blue"
	},
	{
		"primitives":[{
			"attributes":{
				"POSITION":5,
				"NORMAL":6,
				"TEXCOORD_0":7
			},
			"indices":4,
			"material":1
		}],
		"name":"dolphin-sky blue"
	},
	{
		"primitives":[{
			"attributes":{
				"POSITION":9,
				"NORMAL":10,
				"TEXCOORD_0":11
			},
			"indices":8,
			"material":1
		}],
		"name":"dolphin-sky blue"
	},
	{
		"primitives":[{
			"attributes":{
				"POSITION":13,
				"NORMAL":14,
				"TEXCOORD_0":15
			},
			"indices":12,
			"material":2
		}],
		"name":"dolphin-beige"
	},
	{
		"primitives":[{
			"attributes":{
				"POSITION":17,
				"NORMAL":18,
				"TEXCOORD_0":19
			},
			"indices":16,
			"material":1
		}],
		"name":"dolphin-sky blue"
	},
	{
		"primitives":[{
			"attributes":{
				"POSITION":21,
				"NORMAL":22,
				"TEXCOORD_0":23
			},
			"indices":20,
			"material":0
		}],
		"name":"dolphin-blue"
	},
	{
		"primitives":[{
			"attributes":{
				"POSITION":25,
				"NORMAL":26,
				"TEXCOORD_0":27
			},
			"indices":24,
			"material":3
		}],
		"name":"dolphin-pink"
	},
	{
		"primitives":[{
			"attributes":{
				"POSITION":29,
				"NORMAL":30,
				"TEXCOORD_0":31
			},
			"indices":28,
			"material":4
		}],
		"name":"dolphin-white"
	}],
	"accessors":[{
		"bufferView":0,
		"type":"SCALAR",
		"componentType":5123,
		"count":3660,
		"byteOffset":0,
		"min":[0],
		"max":[716]
	},
	{
		"bufferView":1,
		"type":"VEC3",
		"componentType":5126,
		"count":717,
		"byteOffset":0,
		"min":[-84.95724487304688,
		96.86092376708985,
		284.1142272949219],
		"max":[84.30509948730469,
		119.02375030517578,
		353.70831298828127]
	},
	{
		"bufferView":1,
		"type":"VEC3",
		"componentType":5126,
		"count":717,
		"byteOffset":12,
		"min":[-0.9908750653266907,
		-0.9975625276565552,
		-0.995343804359436],
		"max":[0.990906298160553,
		0.9975625276565552,
		0.995343804359436]
	},
	{
		"bufferView":1,
		"type":"VEC2",
		"componentType":5126,
		"count":717,
		"byteOffset":24,
		"min":[0.0,
		0.0],
		"max":[1.0,
		1.0]
	},
	{
		"bufferView":2,
		"type":"SCALAR",
		"componentType":5123,
		"count":9048,
		"byteOffset":0,
		"min":[0],
		"max":[1697]
	},
	{
		"bufferView":3,
		"type":"VEC3",
		"componentType":5126,
		"count":1698,
		"byteOffset":0,
		"min":[-152.76217651367188,
		-294.641845703125,
		-312.7592468261719],
		"max":[168.82029724121095,
		-64.1412582397461,
		-102.1922378540039]
	},
	{
		"bufferView":3,
		"type":"VEC3",
		"componentType":5126,
		"count":1698,
		"byteOffset":12,
		"min":[-0.9971875548362732,
		-0.9966250658035278,
		-0.9976250529289246],
		"max":[0.9971875548362732,
		0.9965937733650208,
		0.9976250529289246]
	},
	{
		"bufferView":3,
		"type":"VEC2",
		"componentType":5126,
		"count":1698,
		"byteOffset":24,
		"min":[0.0,
		0.0],
		"max":[1.0,
		1.0]
	},
	{
		"bufferView":4,
		"type":"SCALAR",
		"componentType":5123,
		"count":90,
		"byteOffset":0,
		"min":[0],
		"max":[34]
	},
	{
		"bufferView":5,
		"type":"VEC3",
		"componentType":5126,
		"count":35,
		"byteOffset":0,
		"min":[-70.43841552734375,
		97.41067504882813,
		313.155029296875],
		"max":[68.43841552734375,
		149.6798095703125,
		355.9845275878906]
	},
	{
		"bufferView":5,
		"type":"VEC3",
		"componentType":5126,
		"count":35,
		"byteOffset":12,
		"min":[-0.8015313148498535,
		-0.3659375309944153,
		0.3854062557220459],
		"max":[0.8570000529289246,
		0.6904375553131104,
		0.928156316280365]
	},
	{
		"bufferView":5,
		"type":"VEC2",
		"componentType":5126,
		"count":35,
		"byteOffset":24,
		"min":[0.39915430545806887,
		0.0],
		"max":[0.47767433524131777,
		0.0675027072429657]
	},
	{
		"bufferView":6,
		"type":"SCALAR",
		"componentType":5123,
		"count":1074,
		"byteOffset":0,
		"min":[0],
		"max":[252]
	},
	{
		"bufferView":7,
		"type":"VEC3",
		"componentType":5126,
		"count":253,
		"byteOffset":0,
		"min":[-92.62999725341797,
		-166.31089782714845,
		-186.93792724609376],
		"max":[90.62999725341797,
		149.6798095703125,
		355.9845275878906]
	},
	{
		"bufferView":7,
		"type":"VEC3",
		"componentType":5126,
		"count":253,
		"byteOffset":12,
		"min":[-0.9946563243865967,
		-0.9967188239097595,
		0.030500002205371858],
		"max":[0.9856563210487366,
		0.5038125514984131,
		0.9237188100814819]
	},
	{
		"bufferView":7,
		"type":"VEC2",
		"componentType":5126,
		"count":253,
		"byteOffset":24,
		"min":[0.15439975261688233,
		0.0],
		"max":[0.5190801620483398,
		1.0]
	},
	{
		"bufferView":8,
		"type":"SCALAR",
		"componentType":5123,
		"count":2793,
		"byteOffset":0,
		"min":[0],
		"max":[850]
	},
	{
		"bufferView":9,
		"type":"VEC3",
		"componentType":5126,
		"count":851,
		"byteOffset":0,
		"min":[-137.98162841796876,
		-175.02243041992188,
		-211.84841918945313],
		"max":[125.58002471923828,
		316.7938537597656,
		355.9845275878906]
	},
	{
		"bufferView":9,
		"type":"VEC3",
		"componentType":5126,
		"count":851,
		"byteOffset":12,
		"min":[-1.0,
		-0.9818750619888306,
		-0.9998437762260437],
		"max":[1.0,
		0.9992188215255737,
		0.9519375562667847]
	},
	{
		"bufferView":9,
		"type":"VEC2",
		"componentType":5126,
		"count":851,
		"byteOffset":24,
		"min":[0.0,
		0.0],
		"max":[1.0,
		1.0]
	},
	{
		"bufferView":10,
		"type":"SCALAR",
		"componentType":5123,
		"count":11886,
		"byteOffset":0,
		"min":[0],
		"max":[2270]
	},
	{
		"bufferView":11,
		"type":"VEC3",
		"componentType":5126,
		"count":2271,
		"byteOffset":0,
		"min":[-72.3783950805664,
		159.6395721435547,
		243.33175659179688],
		"max":[67.09930419921875,
		218.1573486328125,
		283.8636169433594]
	},
	{
		"bufferView":11,
		"type":"VEC3",
		"componentType":5126,
		"count":2271,
		"byteOffset":12,
		"min":[-0.9446250200271606,
		-0.999125063419342,
		-0.9751250743865967],
		"max":[0.9446250200271606,
		0.9991875290870667,
		0.9751250743865967]
	},
	{
		"bufferView":11,
		"type":"VEC2",
		"componentType":5126,
		"count":2271,
		"byteOffset":24,
		"min":[0.0,
		0.0],
		"max":[1.0,
		1.0]
	},
	{
		"bufferView":12,
		"type":"SCALAR",
		"componentType":5123,
		"count":336,
		"byteOffset":0,
		"min":[0],
		"max":[119]
	},
	{
		"bufferView":13,
		"type":"VEC3",
		"componentType":5126,
		"count":120,
		"byteOffset":0,
		"min":[-97.38377380371094,
		125.67266082763672,
		206.72189331054688],
		"max":[94.28107452392578,
		152.82794189453126,
		246.34625244140626]
	},
	{
		"bufferView":13,
		"type":"VEC3",
		"componentType":5126,
		"count":120,
		"byteOffset":12,
		"min":[-0.9869688153266907,
		-0.9924687743186951,
		-0.9928438067436218],
		"max":[0.9869688153266907,
		0.9924687743186951,
		0.9928438067436218]
	},
	{
		"bufferView":13,
		"type":"VEC2",
		"componentType":5126,
		"count":120,
		"byteOffset":24,
		"min":[0.0,
		0.0],
		"max":[1.0,
		1.0]
	},
	{
		"bufferView":14,
		"type":"SCALAR",
		"componentType":5123,
		"count":672,
		"byteOffset":0,
		"min":[0],
		"max":[239]
	},
	{
		"bufferView":15,
		"type":"VEC3",
		"componentType":5126,
		"count":240,
		"byteOffset":0,
		"min":[-68.6314926147461,
		147.8275146484375,
		259.5758056640625],
		"max":[63.35239791870117,
		196.67344665527345,
		290.4445495605469]
	},
	{
		"bufferView":15,
		"type":"VEC3",
		"componentType":5126,
		"count":240,
		"byteOffset":12,
		"min":[-0.9065312743186951,
		-0.9418125152587891,
		-0.8457812666893005],
		"max":[0.9065312743186951,
		0.9418125152587891,
		0.8457812666893005]
	},
	{
		"bufferView":15,
		"type":"VEC2",
		"componentType":5126,
		"count":240,
		"byteOffset":24,
		"min":[0.0,
		0.0],
		"max":[1.0,
		1.0]
	}],
	"bufferViews":[{
		"target":34963,
		"buffer":0,
		"byteOffset":0,
		"byteLength":7320
	},
	{
		"target":34962,
		"buffer":0,
		"byteOffset":7320,
		"byteLength":22944,
		"byteStride":32
	},
	{
		"target":34963,
		"buffer":1,
		"byteOffset":0,
		"byteLength":18096
	},
	{
		"target":34962,
		"buffer":1,
		"byteOffset":18096,
		"byteLength":54336,
		"byteStride":32
	},
	{
		"target":34963,
		"buffer":2,
		"byteOffset":0,
		"byteLength":180
	},
	{
		"target":34962,
		"buffer":2,
		"byteOffset":180,
		"byteLength":1120,
		"byteStride":32
	},
	{
		"target":34963,
		"buffer":3,
		"byteOffset":0,
		"byteLength":2148
	},
	{
		"target":34962,
		"buffer":3,
		"byteOffset":2148,
		"byteLength":8096,
		"byteStride":32
	},
	{
		"target":34963,
		"buffer":4,
		"byteOffset":0,
		"byteLength":5586
	},
	{
		"target":34962,
		"buffer":4,
		"byteOffset":5588,
		"byteLength":27232,
		"byteStride":32
	},
	{
		"target":34963,
		"buffer":5,
		"byteOffset":0,
		"byteLength":23772
	},
	{
		"target":34962,
		"buffer":5,
		"byteOffset":23772,
		"byteLength":72672,
		"byteStride":32
	},
	{
		"target":34963,
		"buffer":6,
		"byteOffset":0,
		"byteLength":672
	},
	{
		"target":34962,
		"buffer":6,
		"byteOffset":672,
		"byteLength":3840,
		"byteStride":32
	},
	{
		"target":34963,
		"buffer":7,
		"byteOffset":0,
		"byteLength":1344
	},
	{
		"target":34962,
		"buffer":7,
		"byteOffset":1344,
		"byteLength":7680,
		"byteStride":32
	}],
	"buffers":[{
		"uri":"data:application/octet-stream;base64,",
		"byteLength":30264
	},
	{
		"uri":"data:application/octet-stream;base64,",
		"byteLength":72432
	},
	{
		"uri":"data:application/octet-stream;base64,",
		"byteLength":1300
	},
	{
		"uri":"data:application/octet-stream;base64,",
		"byteLength":10244
	},
	{
		"uri":"data:application/octet-stream;base64,",
		"byteLength":32820
	},
	{
		"uri":"data:application/octet-stream;base64,",
		"byteLength":96444
	},
	{
		"uri":"data:application/octet-stream;base64,",
		"byteLength":4512
	},
	{
		"uri":"data:application/octet-stream;base64,",
		"byteLength":9024
	}],
	"materials":[{
		"emissiveFactor":[0.0,
		0.0,
		0.0],
		"pbrMetallicRoughness":{
			"baseColorFactor":[0.04799999999999996,
			0.4741333333333332,
			0.8,
			1.0],
			"metallicFactor":0.0,
			"roughnessFactor":0.5
		},
		"alphaMode":"OPAQUE",
		"doubleSided":false,
		"name":"blue"
	},
	{
		"emissiveFactor":[0.0,
		0.0,
		0.0],
		"pbrMetallicRoughness":{
			"baseColorFactor":[0.5409411764705883,
			0.842074915483435,
			0.9490196078431372,
			1.0],
			"metallicFactor":0.0,
			"roughnessFactor":0.5
		},
		"alphaMode":"OPAQUE",
		"doubleSided":false,
		"name":"sky blue"
	},
	{
		"emissiveFactor":[0.0,
		0.0,
		0.0],
		"pbrMetallicRoughness":{
			"baseColorFactor":[1.0,
			0.901,
			0.8200000000000001,
			1.0],
			"metallicFactor":0.0,
			"roughnessFactor":0.5
		},
		"alphaMode":"OPAQUE",
		"doubleSided":false,
		"name":"beige"
	},
	{
		"emissiveFactor":[0.0,
		0.0,
		0.0],
		"pbrMetallicRoughness":{
			"baseColorFactor":[0.91,
			0.7098000000000001,
			0.8599500000000001,
			1.0],
			"metallicFactor":0.0,
			"roughnessFactor":0.5
		},
		"alphaMode":"OPAQUE",
		"doubleSided":false,
		"name":"pink"
	},
	{
		"emissiveFactor":[0.0,
		0.0,
		0.0],
		"pbrMetallicRoughness":{
			"baseColorFactor":[0.89,
			0.89,
			0.89,
			1.0],
			"metallicFactor":0.0,
			"roughnessFactor":0.5
		},
		"alphaMode":"OPAQUE",
		"doubleSided":false,
		"name":"white"
	}]
}